<svg width="671.7587158203124px" height="121.426220703125px" xmlns="http://www.w3.org/2000/svg" viewBox="-85.87935791015622 14.286889648437501 671.7587158203124 121.426220703125" style="background: rgba(0, 0, 0, 0);" preserveAspectRatio="xMidYMid"><defs>
  <filter id="editing-scratch" x="-100%" y="-100%" width="300%" height="300%">
    <!-- COLOR -->
    <feFlood flood-color="#ddd" flood-opacity="0.75" result="COLOR-blu"></feFlood>
    <feFlood flood-color="#666" flood-opacity="0.4" result="COLOR-red"></feFlood>
    <!-- COLOR END -->

    <!-- Texture -->
    <feTurbulence baseFrequency=".05" type="fractalNoise" numOctaves="3" seed="0" result="Texture_10"></feTurbulence>
    <feColorMatrix type="matrix" values="0 0 0 0 0,
    0 0 0 0 0,
    0 0 0 0 0,
    0 0 0 -2.1 1.1" in="Texture_10" result="Texture_20"></feColorMatrix>

    <feColorMatrix result="Texture_30" type="matrix" values="0 0 0 0 0,
    0 0 0 0 0,
    0 0 0 0 0,
    0 0 0 -1.7 1.8" in="Texture_10"></feColorMatrix>
    <!-- Texture -->

    <!-- FILL -->
    <feOffset dx="-3" dy="4" in="SourceAlpha" result="FILL_10"></feOffset>
    <feDisplacementMap scale="17" in="FILL_10" in2="Texture_10" result="FILL_20"></feDisplacementMap>
    <feComposite operator="in" in="Texture_30" in2="FILL_20" result="FILL_40"></feComposite>
    <feComposite operator="in" in="COLOR-blu" in2="FILL_40" result="FILL_50"></feComposite>
    <!-- FILL END-->

    <!-- OUTLINE -->
    <feMorphology operator="dilate" radius="3" in="SourceGraphic" result="OUTLINE_10"></feMorphology>
    <feComposite operator="out" in="OUTLINE_10" in2="SourceGraphic" result="OUTLINE_20"></feComposite>
    <feDisplacementMap scale="7" in="OUTLINE_20" in2="Texture_10" result="OUTLINE_30"></feDisplacementMap>
    <feComposite operator="arithmetic" k2="-1" k3="1" in="Texture_20" in2="OUTLINE_30" result="OUTLINE_40"></feComposite>
    <!-- OUTLINE END-->

    <!-- BEVEL OUTLINE -->
    <feConvolveMatrix order="8,8" divisor="1" kernelMatrix="1 0 0 0 0 0 0 0 0 1 0 0 0 0 0 0 0 0 1 0 0 0 0 0 0 0 0 1 0 0 0 0 0 0 0 0 1 0 0 0 0 0 0 0 0 1 0 0 0 0 0 0 0 0 1 0 0 0 0 0 0 0 0 1 " in="SourceGraphic" result="BEVEL_10"></feConvolveMatrix>
    <feMorphology operator="dilate" radius="2" in="BEVEL_10" result="BEVEL_20"></feMorphology>
    <feComposite operator="out" in="BEVEL_20" in2="BEVEL_10" result="BEVEL_30"></feComposite>
    <feDisplacementMap scale="7" in="BEVEL_30" in2="Texture_10" result="BEVEL_40"></feDisplacementMap>
    <feComposite operator="arithmetic" k2="-1" k3="1" in="Texture_20" in2="BEVEL_40" result="BEVEL_50"></feComposite>
    <feOffset dx="-7" dy="-7" in="BEVEL_50" result="BEVEL_60"></feOffset>
    <feComposite operator="out" in="BEVEL_60" in2="OUTLINE_10" result="BEVEL_70"></feComposite>
    <!-- BEVEL OUTLINE END -->

    <!-- BEVEL FILL -->
    <feOffset dx="-9" dy="-9" in="BEVEL_10" result="BEVEL-FILL_10"></feOffset>
    <feComposite operator="out" in="BEVEL-FILL_10" in2="OUTLINE_10" result="BEVEL-FILL_20"></feComposite>
    <feDisplacementMap scale="17" in="BEVEL-FILL_20" in2="Texture_10" result="BEVEL-FILL_30"></feDisplacementMap>
    <feComposite operator="in" in="COLOR-red" in2="BEVEL-FILL_30" result="BEVEL-FILL_50"></feComposite> <!-- -->
    <!-- BEVEL FILL END-->

    <feMerge result="merge2">
     <feMergeNode in="BEVEL-FILL_50"></feMergeNode>
     <feMergeNode in="BEVEL_70"></feMergeNode>
     <feMergeNode in="FILL_50"></feMergeNode>
      <feMergeNode in="OUTLINE_40"></feMergeNode>
    </feMerge>
  </filter>
</defs>
<g filter="url(#editing-scratch)"><g transform="translate(12.879072189331055, 103.97906303405762)"><path d="M29.18 1.28L29.18 1.28L29.18 1.28Q20.99 1.28 20.22-10.37L20.22-10.37L9.22-10.37L9.22-10.37Q7.94-7.42 7.04-4.86L7.04-4.86L5.38 0L-3.58 0L16.58-42.24L30.34-42.24L33.02-11.14L33.02-11.14Q33.66-4.42 36.22-2.43L36.22-2.43L36.22-2.43Q34.37 1.28 29.18 1.28ZM14.72-23.17L11.20-15.04L20.03-15.04L19.26-31.49L19.26-33.22L14.72-23.17ZM52.26 0.64L52.26 0.64L52.26 0.64Q49.22 0 47.65-0.29L47.65-0.29L47.65-0.29Q46.08-0.58 44.26-0.58L44.26-0.58L44.26-0.58Q42.43-0.58 40.64 0.06L40.64 0.06L40.64 0.06Q39.68-0.51 39.07-1.66L39.07-1.66L39.07-1.66Q38.46-2.82 38.46-4.61L38.46-4.61L38.46-4.61Q38.46-8.38 42.30-11.26L42.30-11.26L58.56-22.98L58.56-22.98Q54.02-24.26 49.89-24.26L49.89-24.26L49.89-24.26Q45.76-24.26 44.29-21.44L44.29-21.44L44.29-21.44Q42.11-24 42.11-28.03L42.11-28.03L42.11-28.03Q42.11-30.72 44.06-32.48L44.06-32.48L44.06-32.48Q46.02-34.24 50.11-34.24L50.11-34.24L50.11-34.24Q52.42-34.24 54.50-33.95L54.50-33.95L54.50-33.95Q56.58-33.66 58.43-33.41L58.43-33.41L61.89-32.90L61.89-32.90Q63.55-32.64 65.25-32.64L65.25-32.64L65.25-32.64Q66.94-32.64 68.22-33.34L68.22-33.34L68.22-33.34Q69.89-31.81 69.89-29.70L69.89-29.70L69.89-29.70Q69.89-26.37 65.79-22.91L65.79-22.91L49.60-10.82L49.60-10.82Q54.59-9.34 57.15-9.34L57.15-9.34L57.15-9.34Q62.53-9.34 64.83-11.90L64.83-11.90L64.83-11.90Q66.62-9.86 66.62-6.30L66.62-6.30L66.62-6.30Q66.62-2.75 64.32-0.74L64.32-0.74L64.32-0.74Q62.02 1.28 57.86 1.28L57.86 1.28L57.86 1.28Q55.30 1.28 52.26 0.64ZM88.70-30.34L88.70-30.34L88.70-30.34Q92.16-33.92 99.46-33.92L99.46-33.92L99.46-33.92Q103.49-33.92 105.70-31.78L105.70-31.78L105.70-31.78Q107.90-29.63 107.90-25.70L107.90-25.70L107.90-25.70Q107.90-21.76 105.70-18.98L105.70-18.98L105.70-18.98Q103.49-16.19 99.39-15.04L99.39-15.04L99.39-15.04Q99.71-13.76 100.16-12.42L100.16-12.42L101.06-9.86L101.06-9.86Q102.27-6.59 103.23-5.44L103.23-5.44L103.23-5.44Q104.19-4.29 105.47-3.90L105.47-3.90L105.47-3.90Q104.77-1.28 102.21 0.13L102.21 0.13L102.21 0.13Q100.16 1.28 97.34 1.28L97.34 1.28L97.34 1.28Q89.09 1.28 88-11.46L88-11.46L88-11.46Q87.81-13.25 87.81-15.04L87.81-15.04L87.81-15.04Q91.01-15.94 93.25-18.94L93.25-18.94L93.25-18.94Q95.49-21.95 95.49-25.47L95.49-25.47L95.49-25.47Q95.49-28.99 92.99-28.99L92.99-28.99L92.99-28.99Q91.20-28.99 89.79-27.01L89.79-27.01L89.79-27.01Q88.38-25.02 87.74-21.63L87.74-21.63L83.52 0L70.59 1.28L79.55-44.80L92.42-46.08L90.94-38.46L90.94-38.46Q89.98-33.09 88.70-30.34ZM113.63-1.92L113.63-1.92L113.63-1.92Q112.13-3.58 111.46-6.21L111.46-6.21L111.46-6.21Q110.78-8.83 110.78-13.12L110.78-13.12L110.78-13.12Q110.78-17.41 112.26-21.31L112.26-21.31L112.26-21.31Q113.73-25.22 116.42-28.03L116.42-28.03L116.42-28.03Q121.92-33.92 131.01-33.92L131.01-33.92L131.01-33.92Q134.27-33.92 136.64-32.83L136.64-32.83L147.58-33.92L142.85-8.96L142.85-8.96Q142.66-8.19 142.66-6.78L142.66-6.78L142.66-6.78Q142.66-5.38 143.52-4.48L143.52-4.48L143.52-4.48Q144.38-3.58 145.66-3.46L145.66-3.46L145.66-3.46Q145.02-1.28 142.69 0L142.69 0L142.69 0Q140.35 1.28 137.73 1.28L137.73 1.28L137.73 1.28Q135.10 1.28 133.34 0.29L133.34 0.29L133.34 0.29Q131.58-0.70 131.07-2.37L131.07-2.37L131.07-2.37Q130.05-0.77 127.87 0.26L127.87 0.26L127.87 0.26Q125.70 1.28 122.78 1.28L122.78 1.28L122.78 1.28Q119.87 1.28 117.50 0.51L117.50 0.51L117.50 0.51Q115.14-0.26 113.63-1.92ZM127.14-27.90L127.14-27.90L127.14-27.90Q126.40-26.75 125.76-24.80L125.76-24.80L125.76-24.80Q125.12-22.85 124.06-17.63L124.06-17.63L124.06-17.63Q123.01-12.42 123.01-8.70L123.01-8.70L123.01-8.70Q123.01-4.99 123.58-3.90L123.58-3.90L123.58-3.90Q124.16-2.82 125.18-2.82L125.18-2.82L125.18-2.82Q127.23-2.82 128.74-4.77L128.74-4.77L128.74-4.77Q130.24-6.72 130.82-10.18L130.82-10.18L134.21-28.93L134.21-28.93Q132.86-30.08 131.30-30.08L131.30-30.08L131.30-30.08Q129.73-30.08 128.80-29.57L128.80-29.57L128.80-29.57Q127.87-29.06 127.14-27.90ZM169.34-31.17L169.34-31.17L169.34-31.17Q167.17-32.83 167.17-36.38L167.17-36.38L167.17-36.38Q167.17-39.94 169.50-41.79L169.50-41.79L169.50-41.79Q171.84-43.65 175.87-43.65L175.87-43.65L175.87-43.65Q178.43-43.65 184.51-42.75L184.51-42.75L188.86-42.11L188.86-42.11Q191.04-41.86 193.31-41.86L193.31-41.86L193.31-41.86Q195.58-41.86 197.12-42.82L197.12-42.82L197.12-42.82Q199.42-40.77 199.42-37.82L199.42-37.82L199.42-37.82Q199.42-34.88 196.80-32.77L196.80-32.77L196.80-32.77Q194.11-30.53 190.66-30.53L190.66-30.53L190.66-30.53Q188.99-30.53 186.30-30.98L186.30-30.98L186.30-30.98Q183.17-21.12 183.17-14.27L183.17-14.27L183.17-14.27Q183.17-7.42 186.62-3.84L186.62-3.84L186.62-3.84Q185.02-0.96 182.66 0.16L182.66 0.16L182.66 0.16Q180.29 1.28 176.74 1.28L176.74 1.28L176.74 1.28Q173.18 1.28 170.98-0.67L170.98-0.67L170.98-0.67Q168.77-2.62 168.77-6.66L168.77-6.66L168.77-6.66Q168.77-11.33 171.33-19.01L171.33-19.01L171.33-19.01Q173.89-26.62 177.73-32.45L177.73-32.45L177.73-32.45Q175.87-32.64 173.95-32.64L173.95-32.64L173.95-32.64Q169.98-32.64 169.34-31.17ZM217.02-17.98L217.02-17.98L217.02-17.98Q219.33-22.08 219.33-26.24L219.33-26.24L219.33-26.24Q219.33-28.99 217.34-28.99L217.34-28.99L217.34-28.99Q215.81-28.99 214.21-26.37L214.21-26.37L214.21-26.37Q212.54-23.74 212.03-20.35L212.03-20.35L208.70 0L195.46 1.28L201.98-32.64L212.54-33.92L211.39-27.46L211.39-27.46Q214.53-33.92 221.57-33.92L221.57-33.92L221.57-33.92Q225.28-33.92 227.30-32L227.30-32L227.30-32Q229.31-30.08 229.31-26.14L229.31-26.14L229.31-26.14Q229.31-22.21 226.72-19.71L226.72-19.71L226.72-19.71Q224.13-17.22 219.71-17.22L219.71-17.22L219.71-17.22Q217.79-17.22 217.02-17.98ZM233.12-1.92L233.12-1.92L233.12-1.92Q231.62-3.58 230.94-6.21L230.94-6.21L230.94-6.21Q230.27-8.83 230.27-13.12L230.27-13.12L230.27-13.12Q230.27-17.41 231.74-21.31L231.74-21.31L231.74-21.31Q233.22-25.22 235.90-28.03L235.90-28.03L235.90-28.03Q241.41-33.92 250.50-33.92L250.50-33.92L250.50-33.92Q253.76-33.92 256.13-32.83L256.13-32.83L267.07-33.92L262.34-8.96L262.34-8.96Q262.14-8.19 262.14-6.78L262.14-6.78L262.14-6.78Q262.14-5.38 263.01-4.48L263.01-4.48L263.01-4.48Q263.87-3.58 265.15-3.46L265.15-3.46L265.15-3.46Q264.51-1.28 262.18 0L262.18 0L262.18 0Q259.84 1.28 257.22 1.28L257.22 1.28L257.22 1.28Q254.59 1.28 252.83 0.29L252.83 0.29L252.83 0.29Q251.07-0.70 250.56-2.37L250.56-2.37L250.56-2.37Q249.54-0.77 247.36 0.26L247.36 0.26L247.36 0.26Q245.18 1.28 242.27 1.28L242.27 1.28L242.27 1.28Q239.36 1.28 236.99 0.51L236.99 0.51L236.99 0.51Q234.62-0.26 233.12-1.92ZM246.62-27.90L246.62-27.90L246.62-27.90Q245.89-26.75 245.25-24.80L245.25-24.80L245.25-24.80Q244.61-22.85 243.55-17.63L243.55-17.63L243.55-17.63Q242.50-12.42 242.50-8.70L242.50-8.70L242.50-8.70Q242.50-4.99 243.07-3.90L243.07-3.90L243.07-3.90Q243.65-2.82 244.67-2.82L244.67-2.82L244.67-2.82Q246.72-2.82 248.22-4.77L248.22-4.77L248.22-4.77Q249.73-6.72 250.30-10.18L250.30-10.18L253.70-28.93L253.70-28.93Q252.35-30.08 250.78-30.08L250.78-30.08L250.78-30.08Q249.22-30.08 248.29-29.57L248.29-29.57L248.29-29.57Q247.36-29.06 246.62-27.90ZM297.60 1.28L297.60 1.28L297.60 1.28Q289.86 1.28 289.86-4.74L289.86-4.74L289.86-4.74Q289.92-6.40 290.43-9.22L290.43-9.22L291.58-15.10L291.58-15.10Q293.31-23.42 293.31-25.28L293.31-25.28L293.31-25.28Q293.31-28.99 291.14-28.99L291.14-28.99L291.14-28.99Q287.49-28.99 285.57-19.46L285.57-19.46L281.79 0L268.93 1.28L275.58-32.70L286.08-33.92L285.06-27.65L285.06-27.65Q288.06-33.92 297.28-33.92L297.28-33.92L297.28-33.92Q301.76-33.92 303.65-32.03L303.65-32.03L303.65-32.03Q305.54-30.14 305.54-25.92L305.54-25.92L305.54-25.92Q305.54-21.95 303.49-12.67L303.49-12.67L303.49-12.67Q302.53-8.51 302.53-6.94L302.53-6.94L302.53-6.94Q302.53-5.38 303.39-4.48L303.39-4.48L303.39-4.48Q304.26-3.58 305.54-3.46L305.54-3.46L305.54-3.46Q304.90-1.28 302.69 0L302.69 0L302.69 0Q300.48 1.28 297.60 1.28ZM329.79-22.46L329.79-22.46L329.79-22.46Q330.69-24.83 330.69-26.88L330.69-26.88L330.69-26.88Q330.69-30.66 327.62-30.66L327.62-30.66L327.62-30.66Q326.02-30.66 324.70-29.22L324.70-29.22L324.70-29.22Q323.39-27.78 323.39-25.98L323.39-25.98L323.39-25.98Q323.39-24.70 324.42-23.68L324.42-23.68L324.42-23.68Q325.89-22.27 329.66-19.97L329.66-19.97L329.66-19.97Q333.44-17.66 334.88-15.78L334.88-15.78L334.88-15.78Q336.32-13.89 336.32-11.30L336.32-11.30L336.32-11.30Q336.32-8.70 335.07-6.34L335.07-6.34L335.07-6.34Q333.82-3.97 331.58-2.30L331.58-2.30L331.58-2.30Q326.78 1.28 319.10 1.28L319.10 1.28L319.10 1.28Q314.94 1.28 311.74-0.90L311.74-0.90L311.74-0.90Q308.54-3.01 308.54-5.50L308.54-5.50L308.54-5.50Q308.54-8 310.37-9.47L310.37-9.47L310.37-9.47Q312.19-10.94 314.88-10.94L314.88-10.94L314.88-10.94Q317.57-10.94 319.23-9.92L319.23-9.92L319.23-9.92Q318.40-7.81 318.40-6.40L318.40-6.40L318.40-6.40Q318.40-2.18 321.98-2.18L321.98-2.18L321.98-2.18Q323.52-2.18 324.54-3.14L324.54-3.14L324.54-3.14Q325.57-4.10 325.57-5.76L325.57-5.76L325.57-5.76Q325.57-9.02 320.06-12.48L320.06-12.48L320.06-12.48Q315.58-15.42 314.56-16.58L314.56-16.58L314.56-16.58Q312.83-18.62 312.83-21.18L312.83-21.18L312.83-21.18Q312.83-23.74 314.05-26.18L314.05-26.18L314.05-26.18Q315.26-28.61 317.50-30.34L317.50-30.34L317.50-30.34Q322.18-33.92 330.30-33.92L330.30-33.92L330.30-33.92Q334.46-33.92 336.93-32.26L336.93-32.26L336.93-32.26Q339.39-30.59 339.39-27.78L339.39-27.78L339.39-27.78Q339.39-24.96 337.70-23.36L337.70-23.36L337.70-23.36Q336-21.76 332.93-21.76L332.93-21.76L332.93-21.76Q330.82-21.76 329.79-22.46ZM371.58-4.38L371.58-4.38L371.58-4.38Q368.90-1.66 365.22-0.19L365.22-0.19L365.22-0.19Q361.54 1.28 357.89 1.28L357.89 1.28L357.89 1.28Q354.24 1.28 352.96 0.64L352.96 0.64L350.98 11.52L337.98 12.80L346.82-32.64L357.25-33.73L356.42-29.31L356.42-29.31Q359.10-33.86 364.67-33.86L364.67-33.86L364.67-33.86Q370.94-33.86 374.27-29.82L374.27-29.82L374.27-29.82Q377.22-26.18 377.22-20.61L377.22-20.61L377.22-20.61Q377.22-15.04 375.74-11.07L375.74-11.07L375.74-11.07Q374.27-7.10 371.58-4.38ZM357.12-22.34L353.73-3.58L353.73-3.58Q355.07-2.43 356.74-2.43L356.74-2.43L356.74-2.43Q358.40-2.43 359.36-3.07L359.36-3.07L359.36-3.07Q360.32-3.71 361.02-4.99L361.02-4.99L361.02-4.99Q362.94-8.45 364.48-18.94L364.48-18.94L364.48-18.94Q364.93-22.02 364.93-25.02L364.93-25.02L364.93-25.02Q364.93-28.03 364.26-28.99L364.26-28.99L364.26-28.99Q363.58-29.95 362.30-29.95L362.30-29.95L362.30-29.95Q358.40-29.95 357.12-22.34L357.12-22.34ZM395.01 1.28L395.01 1.28L395.01 1.28Q380.93 1.28 380.93-11.97L380.93-11.97L380.93-11.97Q380.93-21.38 386.11-27.46L386.11-27.46L386.11-27.46Q391.62-33.92 401.15-33.92L401.15-33.92L401.15-33.92Q408.06-33.92 411.58-30.72L411.58-30.72L411.58-30.72Q415.10-27.52 415.10-20.80L415.10-20.80L415.10-20.80Q415.10-10.56 409.60-4.61L409.60-4.61L409.60-4.61Q404.22 1.28 395.01 1.28ZM396.67-26.56L396.67-26.56L396.67-26.56Q395.90-24.83 395.30-22.24L395.30-22.24L395.30-22.24Q394.69-19.65 393.92-15.55L393.92-15.55L393.92-15.55Q393.15-11.46 393.15-6.40L393.15-6.40L393.15-6.40Q393.15-4.74 393.70-3.65L393.70-3.65L393.70-3.65Q394.24-2.56 395.71-2.56L395.71-2.56L395.71-2.56Q397.18-2.56 398.11-3.26L398.11-3.26L398.11-3.26Q399.04-3.97 399.74-5.63L399.74-5.63L399.74-5.63Q401.02-8.58 402.05-14.05L402.05-14.05L402.05-14.05Q403.07-19.52 403.17-21.89L403.17-21.89L403.17-21.89Q403.26-24.26 403.26-26.02L403.26-26.02L403.26-26.02Q403.26-27.78 402.75-28.93L402.75-28.93L402.75-28.93Q402.24-30.08 400.80-30.08L400.80-30.08L400.80-30.08Q399.36-30.08 398.40-29.18L398.40-29.18L398.40-29.18Q397.44-28.29 396.67-26.56ZM438.91-17.98L438.91-17.98L438.91-17.98Q441.22-22.08 441.22-26.24L441.22-26.24L441.22-26.24Q441.22-28.99 439.23-28.99L439.23-28.99L439.23-28.99Q437.70-28.99 436.10-26.37L436.10-26.37L436.10-26.37Q434.43-23.74 433.92-20.35L433.92-20.35L430.59 0L417.34 1.28L423.87-32.64L434.43-33.92L433.28-27.46L433.28-27.46Q436.42-33.92 443.46-33.92L443.46-33.92L443.46-33.92Q447.17-33.92 449.18-32L449.18-32L449.18-32Q451.20-30.08 451.20-26.14L451.20-26.14L451.20-26.14Q451.20-22.21 448.61-19.71L448.61-19.71L448.61-19.71Q446.02-17.22 441.60-17.22L441.60-17.22L441.60-17.22Q439.68-17.22 438.91-17.98ZM453.25-6.40L453.25-6.40L453.25-6.40Q453.25-8.13 454.14-12.48L454.14-12.48L457.54-29.76L453.76-29.76L454.02-31.68L454.02-31.68Q461.70-33.98 469.12-39.62L469.12-39.62L472.19-39.62L470.66-32.64L475.65-32.64L475.07-29.76L470.14-29.76L466.88-12.48L466.88-12.48Q466.05-8.51 466.05-7.17L466.05-7.17L466.05-7.17Q466.05-4.10 468.74-3.46L468.74-3.46L468.74-3.46Q468.10-1.28 465.79 0L465.79 0L465.79 0Q463.49 1.28 460.22 1.28L460.22 1.28L460.22 1.28Q456.96 1.28 455.10-0.77L455.10-0.77L455.10-0.77Q453.25-2.82 453.25-6.40Z" fill="#000"></path></g></g><style>text {
  font-size: 64px;
  font-family: Arial Black;
  dominant-baseline: central;
  text-anchor: middle;
}</style></svg>